<svg width="47" height="46" viewBox="0 0 47 46" fill="none" xmlns="http://www.w3.org/2000/svg">
<g id="Social Icons" clip-path="url(#clip0_431_190)">
<path id="Vector" d="M46.97 23.4399C46.97 10.9803 36.4554 0.879883 23.485 0.879883C10.5146 0.879883 0 10.9803 0 23.4399C0 34.7001 8.58807 44.0334 19.8155 45.7258V29.9611H13.8525V23.4399H19.8155V18.4696C19.8155 12.8155 23.3217 9.69238 28.6861 9.69238C31.2547 9.69238 33.9431 10.133 33.9431 10.133V15.6849H30.9818C28.0646 15.6849 27.1545 17.424 27.1545 19.2099V23.4399H33.6679L32.6267 29.9611H27.1545V45.7258C38.3819 44.0334 46.97 34.7001 46.97 23.4399Z" fill="#39958C"/>
</g>
<defs>
<clipPath id="clip0_431_190">
<rect width="46.97" height="45.12" fill="white" transform="translate(0 0.879883)"/>
</clipPath>
</defs>
</svg>
