<svg width="48" height="46" viewBox="0 0 48 46" fill="none" xmlns="http://www.w3.org/2000/svg">
<g id="Social Icons" clip-path="url(#clip0_431_188)">
<path id="Vector" d="M23.9313 4.94244C30.2062 4.94244 30.9493 4.96888 33.4171 5.07463C35.7105 5.17157 36.949 5.5417 37.7746 5.85013C38.8663 6.25551 39.6553 6.74901 40.4717 7.53332C41.2974 8.32644 41.8019 9.07551 42.2239 10.1242C42.545 10.9173 42.9303 12.1158 43.0312 14.3101C43.1413 16.6895 43.1688 17.4033 43.1688 23.4223C43.1688 29.45 43.1413 30.1638 43.0312 32.5344C42.9303 34.7375 42.545 35.9272 42.2239 36.7203C41.8019 37.769 41.2882 38.5269 40.4717 39.3112C39.6461 40.1043 38.8663 40.589 37.7746 40.9944C36.949 41.3028 35.7013 41.6729 33.4171 41.7699C30.9401 41.8756 30.1971 41.9021 23.9313 41.9021C17.6564 41.9021 16.9134 41.8756 14.4456 41.7699C12.1521 41.6729 10.9137 41.3028 10.088 40.9944C8.99635 40.589 8.2074 40.0955 7.39093 39.3112C6.56529 38.5181 6.06073 37.769 5.63873 36.7203C5.31765 35.9272 4.93235 34.7287 4.83144 32.5344C4.72135 30.155 4.69383 29.4412 4.69383 23.4223C4.69383 17.3945 4.72135 16.6807 4.83144 14.3101C4.93235 12.107 5.31765 10.9173 5.63873 10.1242C6.06073 9.07551 6.57446 8.31763 7.39093 7.53332C8.21658 6.74019 8.99635 6.25551 10.088 5.85013C10.9137 5.5417 12.1613 5.17157 14.4456 5.07463C16.9134 4.96888 17.6564 4.94244 23.9313 4.94244ZM23.9313 0.879883C17.5555 0.879883 16.7574 0.90632 14.2529 1.01207C11.7577 1.11782 10.0422 1.50557 8.55601 2.06076C7.00563 2.64238 5.69378 3.40907 4.39109 4.66926C3.07924 5.92063 2.28111 7.18082 1.67564 8.66132C1.09769 10.0978 0.694043 11.7369 0.583957 14.1339C0.473872 16.5485 0.44635 17.3152 0.44635 23.4399C0.44635 29.5646 0.473872 30.3313 0.583957 32.7371C0.694043 35.1341 1.09769 36.782 1.67564 38.2096C2.28111 39.6989 3.07924 40.9591 4.39109 42.2105C5.69378 43.4619 7.00563 44.2374 8.54683 44.8102C10.0422 45.3654 11.7485 45.7531 14.2438 45.8589C16.7482 45.9646 17.5464 45.9911 23.9222 45.9911C30.298 45.9911 31.0961 45.9646 33.6005 45.8589C36.0958 45.7531 37.8113 45.3654 39.2975 44.8102C40.8387 44.2374 42.1505 43.4619 43.4532 42.2105C44.7559 40.9591 45.5632 39.6989 46.1595 38.2184C46.7374 36.782 47.1411 35.1429 47.2512 32.7459C47.3613 30.3401 47.3888 29.5734 47.3888 23.4487C47.3888 17.324 47.3613 16.5573 47.2512 14.1515C47.1411 11.7545 46.7374 10.1066 46.1595 8.67894C45.5815 7.18082 44.7834 5.92063 43.4716 4.66926C42.1689 3.41788 40.857 2.64238 39.3158 2.06957C37.8205 1.51438 36.1142 1.12663 33.6189 1.02088C31.1053 0.90632 30.3071 0.879883 23.9313 0.879883Z" fill="#39958C"/>
<path id="Vector_2" d="M23.9313 11.8516C17.2711 11.8516 11.8678 17.0421 11.8678 23.44C11.8678 29.8379 17.2711 35.0284 23.9313 35.0284C30.5915 35.0284 35.9949 29.8379 35.9949 23.44C35.9949 17.0421 30.5915 11.8516 23.9313 11.8516ZM23.9313 30.9571C19.6105 30.9571 16.1061 27.5907 16.1061 23.44C16.1061 19.2893 19.6105 15.9229 23.9313 15.9229C28.2522 15.9229 31.7566 19.2893 31.7566 23.44C31.7566 27.5907 28.2522 30.9571 23.9313 30.9571Z" fill="#39958C"/>
<path id="Vector_3" d="M39.2883 11.3929C39.2883 12.8911 38.0223 14.0984 36.4719 14.0984C34.9124 14.0984 33.6556 12.8823 33.6556 11.3929C33.6556 9.89481 34.9216 8.6875 36.4719 8.6875C38.0223 8.6875 39.2883 9.90363 39.2883 11.3929Z" fill="#39958C"/>
</g>
<defs>
<clipPath id="clip0_431_188">
<rect width="46.97" height="45.12" fill="white" transform="translate(0.44635 0.879883)"/>
</clipPath>
</defs>
</svg>
