<svg width="47" height="46" viewBox="0 0 47 46" fill="none" xmlns="http://www.w3.org/2000/svg">
<g id="Social Icons" clip-path="url(#clip0_431_189)">
<path id="Vector" d="M46.5321 13.5363C46.5321 13.5363 46.0734 10.4255 44.6607 9.05953C42.8718 7.26178 40.8719 7.25296 39.9545 7.14721C33.386 6.68896 23.5242 6.68896 23.5242 6.68896H23.5058C23.5058 6.68896 13.644 6.68896 7.07552 7.14721C6.15814 7.25296 4.15825 7.26178 2.36935 9.05953C0.956585 10.4255 0.507068 13.5363 0.507068 13.5363C0.507068 13.5363 0.0300293 17.1935 0.0300293 20.8418V24.2611C0.0300293 27.9095 0.497894 31.5667 0.497894 31.5667C0.497894 31.5667 0.956585 34.6775 2.36018 36.0434C4.14907 37.8412 6.49757 37.7795 7.54339 37.9733C11.3047 38.317 23.515 38.4228 23.515 38.4228C23.515 38.4228 33.386 38.4052 39.9545 37.9557C40.8719 37.85 42.8718 37.8412 44.6607 36.0434C46.0734 34.6775 46.5321 31.5667 46.5321 31.5667C46.5321 31.5667 47 27.9183 47 24.2611V20.8418C47 17.1935 46.5321 13.5363 46.5321 13.5363ZM18.6621 28.4118V15.7306L31.3495 22.0932L18.6621 28.4118Z" fill="#39958C"/>
</g>
<defs>
<clipPath id="clip0_431_189">
<rect width="46.97" height="45.12" fill="white" transform="translate(0.0300293)"/>
</clipPath>
</defs>
</svg>
